<svg width="70.000000" height="64.000000" viewBox="0 0 70 64" fill="none" xmlns="http://www.w3.org/2000/svg" xmlns:xlink="http://www.w3.org/1999/xlink">
	<desc>
			Created with Pixso.
	</desc>
	<defs/>
	<path id="Star 5" d="M9 0L6.56 6.56L0 9L6.56 11.43L9 18L11.43 11.43L18 9L11.43 6.56L9 0Z" fill="#BCEC30" fill-opacity="1.000000" fill-rule="evenodd"/>
	<path id="Star 5" d="M6.56 6.56L0 9L6.56 11.43L9 18L11.43 11.43L18 9L11.43 6.56L9 0L6.56 6.56ZM9 2.88L7.34 7.34L2.88 9L7.34 10.65L9 15.11L10.65 10.65L15.11 9L10.65 7.34L9 2.88Z" fill="#202027" fill-opacity="1.000000" fill-rule="evenodd"/>
	<path id="Star 4" d="M45.23 37.96L31 43.5L45.23 49.03L50.5 64L55.76 49.03L70 43.5L55.76 37.96L50.5 23L45.23 37.96ZM50.5 26.01L46.02 38.72L33.75 43.5L46.02 48.27L50.5 60.98L54.97 48.27L67.24 43.5L54.97 38.72L50.5 26.01Z" fill="#202027" fill-opacity="1.000000" fill-rule="evenodd"/>
</svg>
